<svg width="23" height="23" viewBox="0 0 23 23" fill="none" xmlns="http://www.w3.org/2000/svg">
<path d="M11.3436 2.39146C16.1938 2.47604 20.0734 6.4933 19.9888 11.3436C19.9042 16.1938 15.8869 20.0734 11.0367 19.9888C6.18641 19.9042 2.30687 15.8869 2.39145 11.0367C2.47604 6.18642 6.4933 2.30687 11.3436 2.39146ZM11.3819 0.191792C5.31084 0.0859175 0.297665 4.92724 0.19179 10.9983C0.0859155 17.0694 4.92724 22.0826 10.9983 22.1884C17.0694 22.2943 22.0826 17.453 22.1884 11.3819C22.2943 5.31084 17.453 0.297667 11.3819 0.191792ZM12.2899 11.2093L12.3667 6.80997L10.167 6.77161L10.0903 11.1709L6.79079 11.1134L11.1134 15.5895L15.5894 11.2668L12.2899 11.2093Z" fill="#A49A9A"/>
</svg>
