<svg width="158" height="48" viewBox="0 0 158 48" fill="none" xmlns="http://www.w3.org/2000/svg">
<g clip-path="url(#clip0_78_33)">
<path d="M1.02273 9.90909H5.05682L13.125 23.4886H13.4659L21.5341 9.90909H25.5682L15.0568 27.0114V39H11.5341V27.0114L1.02273 9.90909ZM29.6697 39V17.1818H33.022V39H29.6697ZM31.3743 13.5455C30.7209 13.5455 30.1574 13.3229 29.6839 12.8778C29.2199 12.4328 28.9879 11.8977 28.9879 11.2727C28.9879 10.6477 29.2199 10.1127 29.6839 9.66761C30.1574 9.22254 30.7209 9 31.3743 9C32.0277 9 32.5864 9.22254 33.0504 9.66761C33.5239 10.1127 33.7607 10.6477 33.7607 11.2727C33.7607 11.8977 33.5239 12.4328 33.0504 12.8778C32.5864 13.3229 32.0277 13.5455 31.3743 13.5455ZM39.1619 39V17.1818H42.4006V20.5909H42.6847C43.1392 19.4261 43.8731 18.5218 44.8864 17.8778C45.8996 17.2244 47.1165 16.8977 48.5369 16.8977C49.9763 16.8977 51.1742 17.2244 52.1307 17.8778C53.0966 18.5218 53.8494 19.4261 54.3892 20.5909H54.6165C55.1752 19.464 56.0133 18.5691 57.1307 17.9062C58.2481 17.2339 59.5881 16.8977 61.1506 16.8977C63.1013 16.8977 64.697 17.5085 65.9375 18.7301C67.178 19.9422 67.7983 21.8314 67.7983 24.3977V39H64.446V24.3977C64.446 22.7879 64.0057 21.6373 63.125 20.946C62.2443 20.2547 61.2074 19.9091 60.0142 19.9091C58.4801 19.9091 57.2917 20.3731 56.4489 21.3011C55.6061 22.2197 55.1847 23.3845 55.1847 24.7955V39H51.7756V24.0568C51.7756 22.8163 51.3731 21.8172 50.5682 21.0597C49.7633 20.2926 48.7263 19.9091 47.4574 19.9091C46.5862 19.9091 45.7718 20.1411 45.0142 20.6051C44.2661 21.0691 43.66 21.7131 43.196 22.5369C42.7415 23.3513 42.5142 24.2936 42.5142 25.3636V39H39.1619ZM97.7912 19H94.2685C94.0601 17.9867 93.6956 17.0966 93.1747 16.3295C92.6634 15.5625 92.0384 14.9186 91.2997 14.3977C90.5705 13.8674 89.7609 13.4697 88.8707 13.2045C87.9806 12.9394 87.0526 12.8068 86.0866 12.8068C84.3253 12.8068 82.7296 13.2519 81.2997 14.142C79.8793 15.0322 78.7476 16.3438 77.9048 18.0767C77.0715 19.8097 76.6548 21.9356 76.6548 24.4545C76.6548 26.9735 77.0715 29.0994 77.9048 30.8324C78.7476 32.5653 79.8793 33.8769 81.2997 34.767C82.7296 35.6572 84.3253 36.1023 86.0866 36.1023C87.0526 36.1023 87.9806 35.9697 88.8707 35.7045C89.7609 35.4394 90.5705 35.0464 91.2997 34.5256C92.0384 33.9953 92.6634 33.3466 93.1747 32.5795C93.6956 31.803 94.0601 30.9129 94.2685 29.9091H97.7912C97.526 31.3958 97.0431 32.7263 96.3423 33.9006C95.6416 35.0748 94.7704 36.0739 93.7287 36.8977C92.687 37.7121 91.5175 38.3324 90.2202 38.7585C88.9323 39.1847 87.5545 39.3977 86.0866 39.3977C83.6056 39.3977 81.3991 38.7917 79.4673 37.5795C77.5355 36.3674 76.0156 34.6439 74.9077 32.4091C73.7997 30.1742 73.2457 27.5227 73.2457 24.4545C73.2457 21.3864 73.7997 18.7348 74.9077 16.5C76.0156 14.2652 77.5355 12.5417 79.4673 11.3295C81.3991 10.1174 83.6056 9.51136 86.0866 9.51136C87.5545 9.51136 88.9323 9.72443 90.2202 10.1506C91.5175 10.5767 92.687 11.2017 93.7287 12.0256C94.7704 12.84 95.6416 13.8343 96.3423 15.0085C97.0431 16.1733 97.526 17.5038 97.7912 19ZM103.029 39V17.1818H106.381V39H103.029ZM104.734 13.5455C104.08 13.5455 103.517 13.3229 103.043 12.8778C102.579 12.4328 102.347 11.8977 102.347 11.2727C102.347 10.6477 102.579 10.1127 103.043 9.66761C103.517 9.22254 104.08 9 104.734 9C105.387 9 105.946 9.22254 106.41 9.66761C106.883 10.1127 107.12 10.6477 107.12 11.2727C107.12 11.8977 106.883 12.4328 106.41 12.8778C105.946 13.3229 105.387 13.5455 104.734 13.5455ZM112.521 47.1818V17.1818H115.76V20.6477H116.158C116.404 20.2689 116.745 19.786 117.18 19.1989C117.625 18.6023 118.26 18.072 119.084 17.608C119.917 17.1345 121.044 16.8977 122.464 16.8977C124.302 16.8977 125.921 17.357 127.322 18.2756C128.724 19.1941 129.818 20.4962 130.604 22.1818C131.39 23.8674 131.783 25.8561 131.783 28.1477C131.783 30.4583 131.39 32.4612 130.604 34.1562C129.818 35.8419 128.729 37.1487 127.337 38.0767C125.945 38.9953 124.339 39.4545 122.521 39.4545C121.12 39.4545 119.998 39.2225 119.155 38.7585C118.312 38.285 117.663 37.75 117.209 37.1534C116.754 36.5473 116.404 36.0455 116.158 35.6477H115.874V47.1818H112.521ZM115.817 28.0909C115.817 29.7386 116.058 31.1922 116.541 32.4517C117.024 33.7017 117.73 34.6818 118.658 35.392C119.586 36.0928 120.722 36.4432 122.067 36.4432C123.468 36.4432 124.638 36.0739 125.575 35.3352C126.522 34.5871 127.232 33.5833 127.706 32.3239C128.189 31.0549 128.43 29.6439 128.43 28.0909C128.43 26.5568 128.194 25.1742 127.72 23.9432C127.256 22.7027 126.551 21.7225 125.604 21.0028C124.666 20.2737 123.487 19.9091 122.067 19.9091C120.703 19.9091 119.557 20.2547 118.629 20.946C117.701 21.6278 117 22.5843 116.527 23.8153C116.054 25.0369 115.817 26.4621 115.817 28.0909ZM146.044 39.4545C143.942 39.4545 142.128 38.9905 140.604 38.0625C139.089 37.125 137.919 35.8182 137.095 34.142C136.281 32.4564 135.874 30.4962 135.874 28.2614C135.874 26.0265 136.281 24.0568 137.095 22.3523C137.919 20.6383 139.065 19.303 140.533 18.3466C142.01 17.3807 143.733 16.8977 145.703 16.8977C146.839 16.8977 147.962 17.0871 149.07 17.4659C150.178 17.8447 151.186 18.4602 152.095 19.3125C153.004 20.1553 153.729 21.2727 154.268 22.6648C154.808 24.0568 155.078 25.7708 155.078 27.8068V29.2273H138.26V26.3295H151.669C151.669 25.0985 151.423 24 150.93 23.0341C150.447 22.0682 149.756 21.3059 148.857 20.7472C147.966 20.1884 146.915 19.9091 145.703 19.9091C144.368 19.9091 143.213 20.2405 142.237 20.9034C141.271 21.5568 140.528 22.4091 140.007 23.4602C139.486 24.5114 139.226 25.6383 139.226 26.8409V28.7727C139.226 30.4205 139.51 31.8172 140.078 32.9631C140.656 34.0994 141.456 34.9659 142.479 35.5625C143.501 36.1496 144.69 36.4432 146.044 36.4432C146.925 36.4432 147.72 36.3201 148.43 36.0739C149.15 35.8182 149.77 35.4394 150.291 34.9375C150.812 34.4261 151.214 33.7917 151.499 33.0341L154.737 33.9432C154.396 35.0417 153.823 36.0076 153.018 36.8409C152.214 37.6648 151.219 38.3087 150.036 38.7727C148.852 39.2273 147.521 39.4545 146.044 39.4545Z" fill="#D8ABAB"/>
<path d="M1.02273 9.90909V8.90909H-0.765669L0.170778 10.4327L1.02273 9.90909ZM5.05682 9.90909L5.91652 9.3983L5.62586 8.90909H5.05682V9.90909ZM13.125 23.4886L12.2653 23.9994L12.556 24.4886H13.125V23.4886ZM13.4659 23.4886V24.4886H14.035L14.3256 23.9994L13.4659 23.4886ZM21.5341 9.90909V8.90909H20.965L20.6744 9.3983L21.5341 9.90909ZM25.5682 9.90909L26.4201 10.4327L27.3566 8.90909H25.5682V9.90909ZM15.0568 27.0114L14.2049 26.4877L14.0568 26.7286V27.0114H15.0568ZM15.0568 39V40H16.0568V39H15.0568ZM11.5341 39H10.5341V40H11.5341V39ZM11.5341 27.0114H12.5341V26.7286L12.386 26.4877L11.5341 27.0114ZM1.02273 10.9091H5.05682V8.90909H1.02273V10.9091ZM4.19711 10.4199L12.2653 23.9994L13.9847 22.9778L5.91652 9.3983L4.19711 10.4199ZM13.125 24.4886H13.4659V22.4886H13.125V24.4886ZM14.3256 23.9994L22.3938 10.4199L20.6744 9.3983L12.6062 22.9778L14.3256 23.9994ZM21.5341 10.9091H25.5682V8.90909H21.5341V10.9091ZM24.7162 9.38547L14.2049 26.4877L15.9088 27.535L26.4201 10.4327L24.7162 9.38547ZM14.0568 27.0114V39H16.0568V27.0114H14.0568ZM15.0568 38H11.5341V40H15.0568V38ZM12.5341 39V27.0114H10.5341V39H12.5341ZM12.386 26.4877L1.87468 9.38547L0.170778 10.4327L10.6821 27.535L12.386 26.4877ZM29.6697 39H28.6697V40H29.6697V39ZM29.6697 17.1818V16.1818H28.6697V17.1818H29.6697ZM33.022 17.1818H34.022V16.1818H33.022V17.1818ZM33.022 39V40H34.022V39H33.022ZM29.6839 12.8778L28.9917 13.5996L28.999 13.6065L29.6839 12.8778ZM29.6839 9.66761L28.999 8.93895L28.9917 8.94593L29.6839 9.66761ZM33.0504 9.66761L32.3582 10.3893L32.3655 10.3962L33.0504 9.66761ZM33.0504 12.8778L32.3655 12.1492L32.3582 12.1562L33.0504 12.8778ZM30.6697 39V17.1818H28.6697V39H30.6697ZM29.6697 18.1818H33.022V16.1818H29.6697V18.1818ZM32.022 17.1818V39H34.022V17.1818H32.022ZM33.022 38H29.6697V40H33.022V38ZM31.3743 12.5455C30.9738 12.5455 30.6558 12.4189 30.3689 12.1492L28.999 13.6065C29.6591 14.2269 30.4679 14.5455 31.3743 14.5455V12.5455ZM30.3762 12.1562C30.1024 11.8936 29.9879 11.6166 29.9879 11.2727H27.9879C27.9879 12.1789 28.3375 12.972 28.9917 13.5995L30.3762 12.1562ZM29.9879 11.2727C29.9879 10.9289 30.1024 10.6519 30.3762 10.3893L28.9917 8.94593C28.3375 9.57349 27.9879 10.3666 27.9879 11.2727H29.9879ZM30.3689 10.3962C30.6558 10.1266 30.9738 10 31.3743 10V8C30.4679 8 29.6591 8.31852 28.999 8.93898L30.3689 10.3962ZM31.3743 10C31.7744 10 32.0837 10.126 32.3582 10.3893L33.7427 8.94593C33.0891 8.31905 32.281 8 31.3743 8V10ZM32.3655 10.3962C32.6469 10.6608 32.7607 10.9358 32.7607 11.2727H34.7607C34.7607 10.3597 34.4009 9.5646 33.7353 8.93899L32.3655 10.3962ZM32.7607 11.2727C32.7607 11.6097 32.6469 11.8847 32.3655 12.1492L33.7353 13.6065C34.4009 12.9809 34.7607 12.1858 34.7607 11.2727H32.7607ZM32.3582 12.1562C32.0837 12.4194 31.7744 12.5455 31.3743 12.5455V14.5455C32.281 14.5455 33.0891 14.2264 33.7427 13.5995L32.3582 12.1562ZM39.1619 39H38.1619V40H39.1619V39ZM39.1619 17.1818V16.1818H38.1619V17.1818H39.1619ZM42.4006 17.1818H43.4006V16.1818H42.4006V17.1818ZM42.4006 20.5909H41.4006V21.5909H42.4006V20.5909ZM42.6847 20.5909V21.5909H43.3679L43.6162 20.9545L42.6847 20.5909ZM44.8864 17.8778L45.4227 18.7218L45.4283 18.7183L44.8864 17.8778ZM52.1307 17.8778L51.5665 18.7036L51.576 18.7099L52.1307 17.8778ZM54.3892 20.5909L53.4819 21.0114L53.7505 21.5909H54.3892V20.5909ZM54.6165 20.5909V21.5909H55.2368L55.5124 21.0351L54.6165 20.5909ZM57.1307 17.9062L57.6409 18.7663L57.6462 18.7631L57.1307 17.9062ZM65.9375 18.7301L65.2358 19.4426L65.2386 19.4454L65.9375 18.7301ZM67.7983 39V40H68.7983V39H67.7983ZM64.446 39H63.446V40H64.446V39ZM63.125 20.946L62.5076 21.7326L62.5076 21.7326L63.125 20.946ZM56.4489 21.3011L57.1857 21.9772L57.1891 21.9734L56.4489 21.3011ZM55.1847 39V40H56.1847V39H55.1847ZM51.7756 39H50.7756V40H51.7756V39ZM50.5682 21.0597L49.8783 21.7836L49.8828 21.7879L50.5682 21.0597ZM45.0142 20.6051L44.4919 19.7523L44.4871 19.7553L45.0142 20.6051ZM43.196 22.5369L42.3247 22.0462L42.3228 22.0496L43.196 22.5369ZM42.5142 39V40H43.5142V39H42.5142ZM40.1619 39V17.1818H38.1619V39H40.1619ZM39.1619 18.1818H42.4006V16.1818H39.1619V18.1818ZM41.4006 17.1818V20.5909H43.4006V17.1818H41.4006ZM42.4006 21.5909H42.6847V19.5909H42.4006V21.5909ZM43.6162 20.9545C43.9969 19.979 44.5967 19.2468 45.4227 18.7218L44.35 17.0339C43.1495 17.7968 42.2815 18.8733 41.7531 20.2274L43.6162 20.9545ZM45.4283 18.7183C46.253 18.1864 47.2739 17.8977 48.5369 17.8977V15.8977C46.9591 15.8977 45.5462 16.2624 44.3444 17.0374L45.4283 18.7183ZM48.5369 17.8977C49.8242 17.8977 50.8128 18.1886 51.5666 18.7035L52.6948 17.0521C51.5357 16.2603 50.1285 15.8977 48.5369 15.8977V17.8977ZM51.576 18.7099C52.3728 19.2411 53.0111 19.9954 53.4819 21.0114L55.2965 20.1704C54.6878 18.8569 53.8204 17.8025 52.6854 17.0458L51.576 18.7099ZM54.3892 21.5909H54.6165V19.5909H54.3892V21.5909ZM55.5124 21.0351C55.9824 20.0871 56.6837 19.3341 57.6409 18.7663L56.6205 17.0462C55.3428 17.8041 54.3679 18.8409 53.7205 20.1467L55.5124 21.0351ZM57.6462 18.7631C58.5797 18.2015 59.7336 17.8977 61.1506 17.8977V15.8977C59.4426 15.8977 57.9165 16.2663 56.6151 17.0494L57.6462 18.7631ZM61.1506 17.8977C62.8733 17.8977 64.2056 18.4281 65.2359 19.4426L66.6391 18.0176C65.1883 16.5889 63.3294 15.8977 61.1506 15.8977V17.8977ZM65.2386 19.4454C66.2107 20.3952 66.7983 21.9719 66.7983 24.3977H68.7983C68.7983 21.691 68.1453 19.4893 66.6364 18.0149L65.2386 19.4454ZM66.7983 24.3977V39H68.7983V24.3977H66.7983ZM67.7983 38H64.446V40H67.7983V38ZM65.446 39V24.3977H63.446V39H65.446ZM65.446 24.3977C65.446 22.6214 64.957 21.1128 63.7424 20.1594L62.5076 21.7326C63.0543 22.1618 63.446 22.9543 63.446 24.3977H65.446ZM63.7424 20.1594C62.6736 19.3204 61.4155 18.9091 60.0142 18.9091V20.9091C60.9992 20.9091 61.815 21.189 62.5076 21.7326L63.7424 20.1594ZM60.0142 18.9091C58.2663 18.9091 56.7823 19.4465 55.7086 20.6288L57.1891 21.9734C57.801 21.2997 58.6939 20.9091 60.0142 20.9091V18.9091ZM55.712 20.6251C54.6774 21.7527 54.1847 23.1696 54.1847 24.7955H56.1847C56.1847 23.5993 56.5347 22.6867 57.1857 21.9772L55.712 20.6251ZM54.1847 24.7955V39H56.1847V24.7955H54.1847ZM55.1847 38H51.7756V40H55.1847V38ZM52.7756 39V24.0568H50.7756V39H52.7756ZM52.7756 24.0568C52.7756 22.5777 52.2848 21.3021 51.2535 20.3315L49.8828 21.7879C50.4614 22.3324 50.7756 23.0548 50.7756 24.0568H52.7756ZM51.2581 20.3357C50.2406 19.3662 48.9441 18.9091 47.4574 18.9091V20.9091C48.5086 20.9091 49.2859 21.219 49.8783 21.7836L51.2581 20.3357ZM47.4574 18.9091C46.398 18.9091 45.4034 19.1941 44.4919 19.7524L45.5365 21.4579C46.1402 21.0881 46.7743 20.9091 47.4574 20.9091V18.9091ZM44.4871 19.7553C43.5853 20.3146 42.8651 21.0868 42.3247 22.0462L44.0673 23.0277C44.455 22.3394 44.9469 21.8236 45.5413 21.4549L44.4871 19.7553ZM42.3228 22.0496C41.7736 23.0337 41.5142 24.1484 41.5142 25.3636H43.5142C43.5142 24.4387 43.7094 23.669 44.0692 23.0243L42.3228 22.0496ZM41.5142 25.3636V39H43.5142V25.3636H41.5142ZM42.5142 38H39.1619V40H42.5142V38ZM97.7912 19V20H98.984L98.7759 18.8255L97.7912 19ZM94.2685 19L93.289 19.2014L93.4532 20H94.2685V19ZM93.1747 16.3295L92.3426 16.8843L92.3474 16.8913L93.1747 16.3295ZM91.2997 14.3977L90.7115 15.2065L90.7175 15.2108L90.7234 15.215L91.2997 14.3977ZM88.8707 13.2045L88.5853 14.1629L88.5853 14.1629L88.8707 13.2045ZM81.2997 14.142L80.7712 13.2931L80.7687 13.2947L81.2997 14.142ZM77.9048 18.0767L77.0055 17.6393L77.0036 17.6433L77.9048 18.0767ZM77.9048 30.8324L77.0036 31.2658L77.0055 31.2697L77.9048 30.8324ZM81.2997 34.767L80.7687 35.6144L80.7712 35.616L81.2997 34.767ZM88.8707 35.7045L88.5853 34.7462L88.5853 34.7462L88.8707 35.7045ZM91.2997 34.5256L91.881 35.3393L91.8829 35.3379L91.2997 34.5256ZM93.1747 32.5795L92.3442 32.0225L92.3427 32.0248L93.1747 32.5795ZM94.2685 29.9091V28.9091H93.4547L93.2893 29.7059L94.2685 29.9091ZM97.7912 29.9091L98.7757 30.0847L98.9853 28.9091H97.7912V29.9091ZM96.3423 33.9006L95.4836 33.3881L95.4836 33.3881L96.3423 33.9006ZM93.7287 36.8977L94.3446 37.6855L94.349 37.6821L93.7287 36.8977ZM90.2202 38.7585L89.9081 37.8085L89.906 37.8091L90.2202 38.7585ZM79.4673 37.5795L78.9358 38.4266L78.9358 38.4266L79.4673 37.5795ZM74.9077 32.4091L75.8036 31.9649L75.8036 31.9649L74.9077 32.4091ZM74.9077 16.5L74.0117 16.0558L74.9077 16.5ZM90.2202 10.1506L89.906 11.0999L89.9081 11.1006L90.2202 10.1506ZM93.7287 12.0256L93.1083 12.8099L93.1128 12.8134L93.7287 12.0256ZM96.3423 15.0085L95.4836 15.521L95.4855 15.524L96.3423 15.0085ZM97.7912 18H94.2685V20H97.7912V18ZM95.248 18.7986C95.0162 17.6713 94.6049 16.6557 94.002 15.7678L92.3474 16.8913C92.7862 17.5375 93.1041 18.3022 93.289 19.2014L95.248 18.7986ZM94.0068 15.7748C93.4284 14.9074 92.7174 14.1738 91.876 13.5805L90.7234 15.215C91.3593 15.6634 91.8983 16.2176 92.3427 16.8842L94.0068 15.7748ZM91.8879 13.589C91.0643 12.99 90.1517 12.5427 89.1562 12.2462L88.5853 14.1629C89.3701 14.3967 90.0768 14.7449 90.7115 15.2065L91.8879 13.589ZM89.1562 12.2462C88.1698 11.9523 87.1453 11.8068 86.0866 11.8068V13.8068C86.9598 13.8068 87.7914 13.9265 88.5853 14.1629L89.1562 12.2462ZM86.0866 11.8068C84.1474 11.8068 82.3672 12.2996 80.7712 13.2931L81.8282 14.991C83.0921 14.2042 84.5031 13.8068 86.0866 13.8068V11.8068ZM80.7687 13.2947C79.1669 14.2985 77.9178 15.7637 77.0055 17.6393L78.8041 18.5141C79.5775 16.9238 80.5916 15.7659 81.8307 14.9894L80.7687 13.2947ZM77.0036 17.6433C76.0884 19.5467 75.6548 21.8302 75.6548 24.4545H77.6548C77.6548 22.041 78.0546 20.0727 78.806 18.5101L77.0036 17.6433ZM75.6548 24.4545C75.6548 27.0789 76.0884 29.3624 77.0036 31.2658L78.806 30.399C78.0546 28.8364 77.6548 26.8681 77.6548 24.4545H75.6548ZM77.0055 31.2697C77.9178 33.1454 79.1669 34.6106 80.7687 35.6144L81.8307 33.9197C80.5916 33.1432 79.5775 31.9853 78.8041 30.395L77.0055 31.2697ZM80.7712 35.616C82.3672 36.6095 84.1474 37.1023 86.0866 37.1023V35.1023C84.5031 35.1023 83.0921 34.7049 81.8282 33.9181L80.7712 35.616ZM86.0866 37.1023C87.1453 37.1023 88.1698 36.9568 89.1562 36.6629L88.5853 34.7462C87.7914 34.9826 86.9598 35.1023 86.0866 35.1023V37.1023ZM89.1562 36.6629C90.1484 36.3674 91.0586 35.9267 91.881 35.3393L90.7185 33.7118C90.0825 34.1661 89.3734 34.5114 88.5853 34.7462L89.1562 36.6629ZM91.8829 35.3379C92.7207 34.7364 93.4296 34 94.0068 33.1342L92.3427 32.0248C91.8971 32.6932 91.356 33.2541 90.7165 33.7132L91.8829 35.3379ZM94.0052 33.1366C94.6046 32.2429 95.0156 31.2303 95.2476 30.1123L93.2893 29.7059C93.1047 30.5955 92.7865 31.3631 92.3442 32.0225L94.0052 33.1366ZM94.2685 30.9091H97.7912V28.9091H94.2685V30.9091ZM96.8067 29.7335C96.5606 31.1137 96.1163 32.3279 95.4836 33.3881L97.201 34.413C97.9699 33.1247 98.4915 31.678 98.7757 30.0847L96.8067 29.7335ZM95.4836 33.3881C94.8433 34.4611 94.0519 35.3672 93.1084 36.1134L94.349 37.6821C95.4889 36.7806 96.4399 35.6885 97.201 34.413L95.4836 33.3881ZM93.1128 36.1099C92.1652 36.8507 91.0992 37.4172 89.9081 37.8085L90.5322 39.7086C91.9358 39.2475 93.2088 38.5735 94.3446 37.6855L93.1128 36.1099ZM89.906 37.8091C88.7275 38.1991 87.4565 38.3977 86.0866 38.3977V40.3977C87.6525 40.3977 89.1371 40.1702 90.5343 39.7079L89.906 37.8091ZM86.0866 38.3977C83.7764 38.3977 81.7574 37.8359 79.9988 36.7325L78.9358 38.4266C81.0409 39.7474 83.4347 40.3977 86.0866 40.3977V38.3977ZM79.9988 36.7325C78.2378 35.6275 76.8375 34.0504 75.8036 31.9649L74.0117 32.8533C75.1937 35.2374 76.8332 37.1073 78.9358 38.4266L79.9988 36.7325ZM75.8036 31.9649C74.778 29.8962 74.2457 27.4034 74.2457 24.4545H72.2457C72.2457 27.642 72.8214 30.4522 74.0117 32.8533L75.8036 31.9649ZM74.2457 24.4545C74.2457 21.5057 74.778 19.0128 75.8036 16.9442L74.0117 16.0558C72.8214 18.4568 72.2457 21.2671 72.2457 24.4545H74.2457ZM75.8036 16.9442C76.8375 14.8586 78.2378 13.2815 79.9988 12.1766L78.9358 10.4825C76.8332 11.8018 75.1937 13.6717 74.0117 16.0558L75.8036 16.9442ZM79.9988 12.1766C81.7574 11.0732 83.7764 10.5114 86.0866 10.5114V8.51136C83.4347 8.51136 81.0409 9.16169 78.9358 10.4825L79.9988 12.1766ZM86.0866 10.5114C87.4565 10.5114 88.7275 10.71 89.906 11.0999L90.5343 9.20119C89.1371 8.73888 87.6525 8.51136 86.0866 8.51136V10.5114ZM89.9081 11.1006C91.097 11.4911 92.1615 12.061 93.1084 12.8099L94.349 11.2412C93.2125 10.3424 91.9381 9.66228 90.5322 9.20051L89.9081 11.1006ZM93.1128 12.8134C94.0539 13.5492 94.8439 14.449 95.4836 15.521L97.201 14.4961C96.4392 13.2195 95.4868 12.1308 94.3446 11.2378L93.1128 12.8134ZM95.4855 15.524C96.1161 16.5723 96.5602 17.7847 96.8065 19.1745L98.7759 18.8255C98.4918 17.2229 97.9701 15.7743 97.1992 14.493L95.4855 15.524ZM103.029 39H102.029V40H103.029V39ZM103.029 17.1818V16.1818H102.029V17.1818H103.029ZM106.381 17.1818H107.381V16.1818H106.381V17.1818ZM106.381 39V40H107.381V39H106.381ZM103.043 12.8778L102.351 13.5996L102.358 13.6065L103.043 12.8778ZM103.043 9.66761L102.358 8.93895L102.351 8.94593L103.043 9.66761ZM106.41 9.66761L105.718 10.3893L105.725 10.3962L106.41 9.66761ZM106.41 12.8778L105.725 12.1492L105.718 12.1562L106.41 12.8778ZM104.029 39V17.1818H102.029V39H104.029ZM103.029 18.1818H106.381V16.1818H103.029V18.1818ZM105.381 17.1818V39H107.381V17.1818H105.381ZM106.381 38H103.029V40H106.381V38ZM104.734 12.5455C104.333 12.5455 104.015 12.4189 103.728 12.1492L102.358 13.6065C103.018 14.2269 103.827 14.5455 104.734 14.5455V12.5455ZM103.736 12.1562C103.462 11.8936 103.347 11.6166 103.347 11.2727H101.347C101.347 12.1789 101.697 12.972 102.351 13.5995L103.736 12.1562ZM103.347 11.2727C103.347 10.9289 103.462 10.6519 103.736 10.3893L102.351 8.94593C101.697 9.57349 101.347 10.3666 101.347 11.2727H103.347ZM103.728 10.3962C104.015 10.1266 104.333 10 104.734 10V8C103.827 8 103.018 8.31852 102.358 8.93898L103.728 10.3962ZM104.734 10C105.134 10 105.443 10.126 105.718 10.3893L107.102 8.94593C106.448 8.31905 105.64 8 104.734 8V10ZM105.725 10.3962C106.006 10.6608 106.12 10.9358 106.12 11.2727H108.12C108.12 10.3597 107.76 9.5646 107.095 8.93899L105.725 10.3962ZM106.12 11.2727C106.12 11.6097 106.006 11.8847 105.725 12.1492L107.095 13.6065C107.76 12.9809 108.12 12.1858 108.12 11.2727H106.12ZM105.718 12.1562C105.443 12.4194 105.134 12.5455 104.734 12.5455V14.5455C105.64 14.5455 106.448 14.2264 107.102 13.5995L105.718 12.1562ZM112.521 47.1818H111.521V48.1818H112.521V47.1818ZM112.521 17.1818V16.1818H111.521V17.1818H112.521ZM115.76 17.1818H116.76V16.1818H115.76V17.1818ZM115.76 20.6477H114.76V21.6477H115.76V20.6477ZM116.158 20.6477V21.6477H116.7L116.996 21.1927L116.158 20.6477ZM117.18 19.1989L116.379 18.6009L116.377 18.603L117.18 19.1989ZM119.084 17.608L119.575 18.4793L119.578 18.4774L119.084 17.608ZM127.322 18.2756L127.871 17.4392L127.871 17.4392L127.322 18.2756ZM130.604 22.1818L131.51 21.7592L131.51 21.7592L130.604 22.1818ZM130.604 34.1562L131.51 34.5789L131.511 34.5769L130.604 34.1562ZM127.337 38.0767L127.887 38.9114L127.891 38.9088L127.337 38.0767ZM119.155 38.7585L118.665 39.6304L118.673 39.6345L119.155 38.7585ZM117.209 37.1534L116.409 37.7534L116.413 37.7595L117.209 37.1534ZM116.158 35.6477L117.008 35.1214L116.715 34.6477H116.158V35.6477ZM115.874 35.6477V34.6477H114.874V35.6477H115.874ZM115.874 47.1818V48.1818H116.874V47.1818H115.874ZM116.541 32.4517L115.607 32.8097L115.608 32.8121L116.541 32.4517ZM118.658 35.392L118.05 36.1862L118.055 36.1901L118.658 35.392ZM125.575 35.3352L126.194 36.1207L126.195 36.1199L125.575 35.3352ZM127.706 32.3239L126.771 31.9682L126.77 31.972L127.706 32.3239ZM127.72 23.9432L126.784 24.2935L126.787 24.3022L127.72 23.9432ZM125.604 21.0028L124.99 21.7922L124.999 21.799L125.604 21.0028ZM118.629 20.946L119.221 21.7519L119.227 21.748L118.629 20.946ZM116.527 23.8153L117.459 24.1767L117.46 24.1743L116.527 23.8153ZM113.521 47.1818V17.1818H111.521V47.1818H113.521ZM112.521 18.1818H115.76V16.1818H112.521V18.1818ZM114.76 17.1818V20.6477H116.76V17.1818H114.76ZM115.76 21.6477H116.158V19.6477H115.76V21.6477ZM116.996 21.1927C117.226 20.8385 117.554 20.374 117.983 19.7947L116.377 18.603C115.936 19.198 115.581 19.6994 115.319 20.1027L116.996 21.1927ZM117.982 19.7968C118.324 19.3379 118.841 18.8927 119.575 18.4793L118.593 16.7366C117.679 17.2513 116.927 17.8667 116.379 18.6009L117.982 19.7968ZM119.578 18.4774C120.205 18.121 121.14 17.8977 122.464 17.8977V15.8977C120.948 15.8977 119.629 16.1479 118.59 16.7385L119.578 18.4774ZM122.464 17.8977C124.126 17.8977 125.551 18.3104 126.774 19.1119L127.871 17.4392C126.291 16.4037 124.477 15.8977 122.464 15.8977V17.8977ZM126.774 19.1119C128.004 19.9176 128.981 21.0683 129.697 22.6044L131.51 21.7592C130.654 19.9242 129.444 18.4707 127.871 17.4392L126.774 19.1119ZM129.697 22.6044C130.409 24.1306 130.783 25.969 130.783 28.1477H132.783C132.783 25.7432 132.37 23.6042 131.51 21.7592L129.697 22.6044ZM130.783 28.1477C130.783 30.3466 130.409 32.1997 129.696 33.7356L131.511 34.5769C132.371 32.7227 132.783 30.5701 132.783 28.1477H130.783ZM129.697 33.7336C128.98 35.2722 128.005 36.4294 126.782 37.2447L127.891 38.9088C129.453 37.868 130.655 36.4115 131.51 34.5789L129.697 33.7336ZM126.786 37.242C125.572 38.043 124.162 38.4545 122.521 38.4545V40.4545C124.517 40.4545 126.317 39.9475 127.887 38.9114L126.786 37.242ZM122.521 38.4545C121.217 38.4545 120.28 38.2364 119.637 37.8825L118.673 39.6345C119.715 40.2086 121.023 40.4545 122.521 40.4545V38.4545ZM119.645 37.8867C118.888 37.4615 118.356 37.009 118.004 36.5474L116.413 37.7595C116.971 38.491 117.736 39.1086 118.665 39.6304L119.645 37.8867ZM118.009 36.5534C117.563 35.9585 117.232 35.4833 117.008 35.1214L115.307 36.1741C115.576 36.6077 115.946 37.1362 116.409 37.7534L118.009 36.5534ZM116.158 34.6477H115.874V36.6477H116.158V34.6477ZM114.874 35.6477V47.1818H116.874V35.6477H114.874ZM115.874 46.1818H112.521V48.1818H115.874V46.1818ZM114.817 28.0909C114.817 29.8348 115.072 31.4138 115.607 32.8097L117.475 32.0937C117.044 30.9707 116.817 29.6425 116.817 28.0909H114.817ZM115.608 32.8121C116.148 34.2081 116.955 35.3484 118.05 36.1862L119.265 34.5979C118.504 34.0152 117.901 33.1953 117.474 32.0913L115.608 32.8121ZM118.055 36.1901C119.183 37.0417 120.54 37.4432 122.067 37.4432V35.4432C120.904 35.4432 119.988 35.1439 119.26 34.594L118.055 36.1901ZM122.067 37.4432C123.652 37.4432 125.051 37.0216 126.194 36.1207L124.956 34.5497C124.225 35.1261 123.285 35.4432 122.067 35.4432V37.4432ZM126.195 36.1199C127.301 35.2464 128.112 34.0855 128.642 32.6758L126.77 31.972C126.353 33.0812 125.744 33.9279 124.955 34.5505L126.195 36.1199ZM128.641 32.6796C129.173 31.2819 129.43 29.7482 129.43 28.0909H127.43C127.43 29.5397 127.205 30.8279 126.771 31.9682L128.641 32.6796ZM129.43 28.0909C129.43 26.4538 129.178 24.9469 128.654 23.5842L126.787 24.3022C127.21 25.4016 127.43 26.6599 127.43 28.0909H129.43ZM128.657 23.5928C128.134 22.1961 127.323 21.0534 126.209 20.2067L124.999 21.799C125.778 22.3917 126.378 23.2092 126.784 24.2935L128.657 23.5928ZM126.218 20.2135C125.072 19.3225 123.665 18.9091 122.067 18.9091V20.9091C123.31 20.9091 124.26 21.2249 124.99 21.7922L126.218 20.2135ZM122.067 18.9091C120.528 18.9091 119.162 19.3023 118.032 20.1441L119.227 21.748C119.953 21.2071 120.879 20.9091 122.067 20.9091V18.9091ZM118.037 20.1401C116.934 20.951 116.126 22.0734 115.594 23.4564L117.46 24.1743C117.875 23.0952 118.469 22.3047 119.221 21.7519L118.037 20.1401ZM115.595 23.4539C115.067 24.815 114.817 26.3675 114.817 28.0909H116.817C116.817 26.5567 117.04 25.2588 117.459 24.1767L115.595 23.4539ZM140.604 38.0625L140.078 38.9129L140.084 38.9167L140.604 38.0625ZM137.095 34.142L136.195 34.5771L136.198 34.5832L137.095 34.142ZM137.095 22.3523L136.194 21.9191L136.193 21.9212L137.095 22.3523ZM140.533 18.3466L141.079 19.1844L141.08 19.1836L140.533 18.3466ZM149.07 17.4659L149.393 16.5197L149.393 16.5197L149.07 17.4659ZM152.095 19.3125L151.411 20.042L151.415 20.0458L152.095 19.3125ZM154.268 22.6648L155.201 22.3032L155.201 22.3032L154.268 22.6648ZM155.078 29.2273V30.2273H156.078V29.2273H155.078ZM138.26 29.2273H137.26V30.2273H138.26V29.2273ZM138.26 26.3295V25.3295H137.26V26.3295H138.26ZM151.669 26.3295V27.3295H152.669V26.3295H151.669ZM150.93 23.0341L150.036 23.4813L150.039 23.4883L150.93 23.0341ZM148.857 20.7472L148.325 21.5942L148.329 21.5967L148.857 20.7472ZM142.237 20.9034L142.798 21.7317L142.799 21.7305L142.237 20.9034ZM140.007 23.4602L139.111 23.0162L139.111 23.0162L140.007 23.4602ZM140.078 32.9631L139.182 33.4073L139.187 33.4162L140.078 32.9631ZM142.479 35.5625L141.975 36.4263L141.981 36.4298L142.479 35.5625ZM148.43 36.0739L148.758 37.0187L148.765 37.0162L148.43 36.0739ZM150.291 34.9375L150.985 35.6576L150.992 35.6511L150.291 34.9375ZM151.499 33.0341L151.769 32.0713L150.885 31.8231L150.562 32.683L151.499 33.0341ZM154.737 33.9432L155.692 34.2396L155.997 33.2581L155.007 32.9804L154.737 33.9432ZM153.018 36.8409L153.734 37.5398L153.738 37.5356L153.018 36.8409ZM150.036 38.7727L150.394 39.7063L150.4 39.7038L150.036 38.7727ZM146.044 38.4545C144.092 38.4545 142.466 38.0252 141.124 37.2083L140.084 38.9167C141.791 39.9559 143.791 40.4545 146.044 40.4545V38.4545ZM141.13 37.2121C139.782 36.3783 138.738 35.217 137.993 33.7009L136.198 34.5832C137.1 36.4194 138.395 37.8717 140.078 38.9129L141.13 37.2121ZM137.996 33.707C137.258 32.1809 136.874 30.3744 136.874 28.2614H134.874C134.874 30.618 135.303 32.732 136.195 34.5771L137.996 33.707ZM136.874 28.2614C136.874 26.1486 137.258 24.3309 137.997 22.7834L136.193 21.9212C135.303 23.7828 134.874 25.9044 134.874 28.2614H136.874ZM137.996 22.7855C138.748 21.2217 139.777 20.0325 141.079 19.1844L139.987 17.5088C138.353 18.5735 137.09 20.0548 136.194 21.9191L137.996 22.7855ZM141.08 19.1836C142.376 18.3361 143.904 17.8977 145.703 17.8977V15.8977C143.562 15.8977 141.644 16.4252 139.985 17.5096L141.08 19.1836ZM145.703 17.8977C146.726 17.8977 147.739 18.0679 148.746 18.4121L149.393 16.5197C148.184 16.1064 146.953 15.8977 145.703 15.8977V17.8977ZM148.746 18.4121C149.711 18.7422 150.599 19.2804 151.411 20.042L152.779 18.583C151.773 17.6401 150.644 16.9472 149.393 16.5197L148.746 18.4121ZM151.415 20.0458C152.193 20.7665 152.84 21.7472 153.336 23.0263L155.201 22.3032C154.617 20.7982 153.816 19.5441 152.775 18.5792L151.415 20.0458ZM153.336 23.0263C153.818 24.2695 154.078 25.8525 154.078 27.8068H156.078C156.078 25.6892 155.798 23.8442 155.201 22.3032L153.336 23.0263ZM154.078 27.8068V29.2273H156.078V27.8068H154.078ZM155.078 28.2273H138.26V30.2273H155.078V28.2273ZM139.26 29.2273V26.3295H137.26V29.2273H139.26ZM138.26 27.3295H151.669V25.3295H138.26V27.3295ZM152.669 26.3295C152.669 24.9622 152.395 23.7045 151.821 22.5799L150.039 23.4883C150.451 24.2955 150.669 25.2348 150.669 26.3295H152.669ZM151.825 22.5869C151.261 21.459 150.444 20.556 149.384 19.8977L148.329 21.5967C149.068 22.0558 149.634 22.6774 150.036 23.4813L151.825 22.5869ZM149.388 19.9002C148.315 19.2269 147.074 18.9091 145.703 18.9091V20.9091C146.757 20.9091 147.617 21.15 148.325 21.5941L149.388 19.9002ZM145.703 18.9091C144.195 18.9091 142.838 19.2863 141.675 20.0763L142.799 21.7305C143.588 21.1948 144.541 20.9091 145.703 20.9091V18.9091ZM141.677 20.0751C140.567 20.826 139.708 21.8111 139.111 23.0162L140.903 23.9042C141.348 23.0071 141.976 22.2876 142.798 21.7317L141.677 20.0751ZM139.111 23.0162C138.52 24.2089 138.226 25.4882 138.226 26.8409H140.226C140.226 25.7883 140.452 24.8138 140.903 23.9042L139.111 23.0162ZM138.226 26.8409V28.7727H140.226V26.8409H138.226ZM138.226 28.7727C138.226 30.5316 138.529 32.0895 139.182 33.4073L140.974 32.5188C140.491 31.545 140.226 30.3093 140.226 28.7727H138.226ZM139.187 33.4162C139.844 34.7101 140.773 35.7254 141.975 36.4263L142.983 34.6987C142.139 34.2064 141.467 33.4887 140.97 32.5099L139.187 33.4162ZM141.981 36.4298C143.176 37.1161 144.541 37.4432 146.044 37.4432V35.4432C144.838 35.4432 143.827 35.1832 142.977 34.6952L141.981 36.4298ZM146.044 37.4432C147.018 37.4432 147.926 37.3071 148.758 37.0187L148.103 35.129C147.514 35.3331 146.832 35.4432 146.044 35.4432V37.4432ZM148.765 37.0162C149.611 36.7155 150.356 36.2638 150.985 35.6576L149.597 34.2174C149.185 34.615 148.689 34.9208 148.096 35.1316L148.765 37.0162ZM150.992 35.6511C151.628 35.0269 152.105 34.2644 152.435 33.3852L150.562 32.683C150.324 33.3189 149.997 33.8254 149.591 34.2239L150.992 35.6511ZM151.228 33.9969L154.467 34.906L155.007 32.9804L151.769 32.0713L151.228 33.9969ZM153.782 33.6468C153.488 34.5947 152.996 35.4245 152.299 36.1462L153.738 37.5356C154.65 36.5907 155.305 35.4886 155.692 34.2396L153.782 33.6468ZM152.303 36.1421C151.607 36.8545 150.736 37.424 149.671 37.8417L150.4 39.7038C151.702 39.1934 152.82 38.475 153.734 37.5397L152.303 36.1421ZM149.677 37.8392C148.625 38.2432 147.419 38.4545 146.044 38.4545V40.4545C147.624 40.4545 149.079 40.2114 150.394 39.7063L149.677 37.8392Z" fill="#D8ABAB"/>
</g>
<defs>
<clipPath id="clip0_78_33">
<rect width="158" height="48" fill="white"/>
</clipPath>
</defs>
</svg>
