<svg width="28" height="24" viewBox="0 0 28 24" fill="none" xmlns="http://www.w3.org/2000/svg">
<path d="M14 2C7.63636 2 2.20182 5.93933 0 11.5C2.20182 17.0607 7.63636 21 14 21C20.3636 21 25.7982 17.0607 28 11.5C25.7982 5.93933 20.3636 2 14 2ZM14 17.8333C10.4873 17.8333 7.63636 14.996 7.63636 11.5C7.63636 8.004 10.4873 5.16667 14 5.16667C17.5127 5.16667 20.3636 8.004 20.3636 11.5C20.3636 14.996 17.5127 17.8333 14 17.8333ZM14 7.7C11.8873 7.7 10.1818 9.39733 10.1818 11.5C10.1818 13.6027 11.8873 15.3 14 15.3C16.1127 15.3 17.8182 13.6027 17.8182 11.5C17.8182 9.39733 16.1127 7.7 14 7.7Z" fill="#373333"/>
<rect x="20.6514" y="0.210342" width="3" height="27" transform="rotate(35.7942 20.6514 0.210342)" fill="#373333"/>
</svg>
